<svg width="58" height="90" viewBox="0 0 58 90" fill="none" xmlns="http://www.w3.org/2000/svg">
<circle cx="57.0012" cy="89.0001" r="1" transform="rotate(-180 57.0012 89.0001)" fill="#F5F5DC"/>
<circle cx="57.0012" cy="81.0001" r="1" transform="rotate(-180 57.0012 81.0001)" fill="#F5F5DC"/>
<circle cx="57.0012" cy="73.0001" r="1" transform="rotate(-180 57.0012 73.0001)" fill="#F5F5DC"/>
<circle cx="57.0012" cy="65.0001" r="1" transform="rotate(-180 57.0012 65.0001)" fill="#F5F5DC"/>
<circle cx="57.0012" cy="57.0001" r="1" transform="rotate(-180 57.0012 57.0001)" fill="#F5F5DC"/>
<circle cx="57.0012" cy="49.0001" r="1" transform="rotate(-180 57.0012 49.0001)" fill="#F5F5DC"/>
<circle cx="57.0012" cy="41.0001" r="1" transform="rotate(-180 57.0012 41.0001)" fill="#F5F5DC"/>
<circle cx="57.0012" cy="33.0001" r="1" transform="rotate(-180 57.0012 33.0001)" fill="#F5F5DC"/>
<circle cx="57.0012" cy="25.0001" r="1" transform="rotate(-180 57.0012 25.0001)" fill="#F5F5DC"/>
<circle cx="57.0012" cy="17.0001" r="1" transform="rotate(-180 57.0012 17.0001)" fill="#F5F5DC"/>
<circle cx="57.0012" cy="9.00006" r="1" transform="rotate(-180 57.0012 9.00006)" fill="#F5F5DC"/>
<circle cx="57.0012" cy="1.00006" r="1" transform="rotate(-180 57.0012 1.00006)" fill="#F5F5DC"/>
<circle cx="49.0012" cy="89.0001" r="1" transform="rotate(-180 49.0012 89.0001)" fill="#F5F5DC"/>
<circle cx="49.0012" cy="81.0001" r="1" transform="rotate(-180 49.0012 81.0001)" fill="#F5F5DC"/>
<circle cx="49.0012" cy="73.0001" r="1" transform="rotate(-180 49.0012 73.0001)" fill="#F5F5DC"/>
<circle cx="49.0012" cy="65.0001" r="1" transform="rotate(-180 49.0012 65.0001)" fill="#F5F5DC"/>
<circle cx="49.0012" cy="57.0001" r="1" transform="rotate(-180 49.0012 57.0001)" fill="#F5F5DC"/>
<circle cx="49.0012" cy="49.0001" r="1" transform="rotate(-180 49.0012 49.0001)" fill="#F5F5DC"/>
<circle cx="49.0012" cy="41.0001" r="1" transform="rotate(-180 49.0012 41.0001)" fill="#F5F5DC"/>
<circle cx="49.0012" cy="33.0001" r="1" transform="rotate(-180 49.0012 33.0001)" fill="#F5F5DC"/>
<circle cx="49.0012" cy="25.0001" r="1" transform="rotate(-180 49.0012 25.0001)" fill="#F5F5DC"/>
<circle cx="49.0012" cy="17.0001" r="1" transform="rotate(-180 49.0012 17.0001)" fill="#F5F5DC"/>
<circle cx="49.0012" cy="9.00006" r="1" transform="rotate(-180 49.0012 9.00006)" fill="#F5F5DC"/>
<circle cx="49.0012" cy="1.00006" r="1" transform="rotate(-180 49.0012 1.00006)" fill="#F5F5DC"/>
<circle cx="41.0012" cy="89.0001" r="1" transform="rotate(-180 41.0012 89.0001)" fill="#F5F5DC"/>
<circle cx="41.0012" cy="81.0001" r="1" transform="rotate(-180 41.0012 81.0001)" fill="#F5F5DC"/>
<circle cx="41.0012" cy="73.0001" r="1" transform="rotate(-180 41.0012 73.0001)" fill="#F5F5DC"/>
<circle cx="41.0012" cy="65.0001" r="1" transform="rotate(-180 41.0012 65.0001)" fill="#F5F5DC"/>
<circle cx="41.0012" cy="57.0001" r="1" transform="rotate(-180 41.0012 57.0001)" fill="#F5F5DC"/>
<circle cx="41.0012" cy="49.0001" r="1" transform="rotate(-180 41.0012 49.0001)" fill="#F5F5DC"/>
<circle cx="41.0012" cy="41.0001" r="1" transform="rotate(-180 41.0012 41.0001)" fill="#F5F5DC"/>
<circle cx="41.0012" cy="33.0001" r="1" transform="rotate(-180 41.0012 33.0001)" fill="#F5F5DC"/>
<circle cx="41.0012" cy="25.0001" r="1" transform="rotate(-180 41.0012 25.0001)" fill="#F5F5DC"/>
<circle cx="41.0012" cy="17.0001" r="1" transform="rotate(-180 41.0012 17.0001)" fill="#F5F5DC"/>
<circle cx="41.0012" cy="9.00006" r="1" transform="rotate(-180 41.0012 9.00006)" fill="#F5F5DC"/>
<circle cx="41.0012" cy="1.00006" r="1" transform="rotate(-180 41.0012 1.00006)" fill="#F5F5DC"/>
<circle cx="33.001" cy="89.0001" r="1" transform="rotate(-180 33.001 89.0001)" fill="#F5F5DC"/>
<circle cx="33.0012" cy="81.0001" r="1" transform="rotate(-180 33.0012 81.0001)" fill="#F5F5DC"/>
<circle cx="33.001" cy="73.0001" r="1" transform="rotate(-180 33.001 73.0001)" fill="#F5F5DC"/>
<circle cx="33.0012" cy="65.0001" r="1" transform="rotate(-180 33.0012 65.0001)" fill="#F5F5DC"/>
<circle cx="33.0012" cy="57.0001" r="1" transform="rotate(-180 33.0012 57.0001)" fill="#F5F5DC"/>
<circle cx="33.0012" cy="49.0001" r="1" transform="rotate(-180 33.0012 49.0001)" fill="#F5F5DC"/>
<circle cx="33.001" cy="41.0001" r="1" transform="rotate(-180 33.001 41.0001)" fill="#F5F5DC"/>
<circle cx="33.001" cy="33.0001" r="1" transform="rotate(-180 33.001 33.0001)" fill="#F5F5DC"/>
<circle cx="33.001" cy="25.0001" r="1" transform="rotate(-180 33.001 25.0001)" fill="#F5F5DC"/>
<circle cx="33.001" cy="17.0001" r="1" transform="rotate(-180 33.001 17.0001)" fill="#F5F5DC"/>
<circle cx="33.001" cy="9.00006" r="1" transform="rotate(-180 33.001 9.00006)" fill="#F5F5DC"/>
<circle cx="33.001" cy="1.00006" r="1" transform="rotate(-180 33.001 1.00006)" fill="#F5F5DC"/>
<circle cx="25.0007" cy="89.0001" r="1" transform="rotate(-180 25.0007 89.0001)" fill="#F5F5DC"/>
<circle cx="25.001" cy="81.0001" r="1" transform="rotate(-180 25.001 81.0001)" fill="#F5F5DC"/>
<circle cx="25.0007" cy="73.0001" r="1" transform="rotate(-180 25.0007 73.0001)" fill="#F5F5DC"/>
<circle cx="25.001" cy="65.0001" r="1" transform="rotate(-180 25.001 65.0001)" fill="#F5F5DC"/>
<circle cx="25.001" cy="57.0001" r="1" transform="rotate(-180 25.001 57.0001)" fill="#F5F5DC"/>
<circle cx="25.001" cy="49.0001" r="1" transform="rotate(-180 25.001 49.0001)" fill="#F5F5DC"/>
<circle cx="25.001" cy="41.0001" r="1" transform="rotate(-180 25.001 41.0001)" fill="#F5F5DC"/>
<circle cx="25.001" cy="33.0001" r="1" transform="rotate(-180 25.001 33.0001)" fill="#F5F5DC"/>
<circle cx="25.001" cy="25.0001" r="1" transform="rotate(-180 25.001 25.0001)" fill="#F5F5DC"/>
<circle cx="25.001" cy="17.0001" r="1" transform="rotate(-180 25.001 17.0001)" fill="#F5F5DC"/>
<circle cx="25.001" cy="9.00006" r="1" transform="rotate(-180 25.001 9.00006)" fill="#F5F5DC"/>
<circle cx="25.001" cy="1.00006" r="1" transform="rotate(-180 25.001 1.00006)" fill="#F5F5DC"/>
<circle cx="17.0005" cy="89" r="1" transform="rotate(-180 17.0005 89)" fill="#F5F5DC"/>
<circle cx="17.0007" cy="81" r="1" transform="rotate(-180 17.0007 81)" fill="#F5F5DC"/>
<circle cx="17.0007" cy="73" r="1" transform="rotate(-180 17.0007 73)" fill="#F5F5DC"/>
<circle cx="17.0007" cy="65" r="1" transform="rotate(-180 17.0007 65)" fill="#F5F5DC"/>
<circle cx="17.0007" cy="57" r="1" transform="rotate(-180 17.0007 57)" fill="#F5F5DC"/>
<circle cx="17.0007" cy="49" r="1" transform="rotate(-180 17.0007 49)" fill="#F5F5DC"/>
<circle cx="17.0007" cy="41" r="1" transform="rotate(-180 17.0007 41)" fill="#F5F5DC"/>
<circle cx="17.0007" cy="33" r="1" transform="rotate(-180 17.0007 33)" fill="#F5F5DC"/>
<circle cx="17.0007" cy="25" r="1" transform="rotate(-180 17.0007 25)" fill="#F5F5DC"/>
<circle cx="17.0007" cy="17" r="1" transform="rotate(-180 17.0007 17)" fill="#F5F5DC"/>
<circle cx="17.0007" cy="9" r="1" transform="rotate(-180 17.0007 9)" fill="#F5F5DC"/>
<circle cx="17.0007" cy="1" r="1" transform="rotate(-180 17.0007 1)" fill="#F5F5DC"/>
<circle cx="9.00024" cy="89.0001" r="1" transform="rotate(-180 9.00024 89.0001)" fill="#F5F5DC"/>
<circle cx="9.00024" cy="81.0001" r="1" transform="rotate(-180 9.00024 81.0001)" fill="#F5F5DC"/>
<circle cx="9.00024" cy="73.0001" r="1" transform="rotate(-180 9.00024 73.0001)" fill="#F5F5DC"/>
<circle cx="9.00049" cy="65.0001" r="1" transform="rotate(-180 9.00049 65.0001)" fill="#F5F5DC"/>
<circle cx="9.00049" cy="57.0001" r="1" transform="rotate(-180 9.00049 57.0001)" fill="#F5F5DC"/>
<circle cx="9.00049" cy="49.0001" r="1" transform="rotate(-180 9.00049 49.0001)" fill="#F5F5DC"/>
<circle cx="9.00049" cy="41.0001" r="1" transform="rotate(-180 9.00049 41.0001)" fill="#F5F5DC"/>
<circle cx="9.00049" cy="33.0001" r="1" transform="rotate(-180 9.00049 33.0001)" fill="#F5F5DC"/>
<circle cx="9.00049" cy="25.0001" r="1" transform="rotate(-180 9.00049 25.0001)" fill="#F5F5DC"/>
<circle cx="9.00049" cy="17.0001" r="1" transform="rotate(-180 9.00049 17.0001)" fill="#F5F5DC"/>
<circle cx="9.00049" cy="9.00006" r="1" transform="rotate(-180 9.00049 9.00006)" fill="#F5F5DC"/>
<circle cx="9.00049" cy="1.00006" r="1" transform="rotate(-180 9.00049 1.00006)" fill="#F5F5DC"/>
<circle cx="1" cy="89" r="1" transform="rotate(-180 1 89)" fill="#F5F5DC"/>
<circle cx="1" cy="81" r="1" transform="rotate(-180 1 81)" fill="#F5F5DC"/>
<circle cx="1" cy="73" r="1" transform="rotate(-180 1 73)" fill="#F5F5DC"/>
<circle cx="1" cy="65" r="1" transform="rotate(-180 1 65)" fill="#F5F5DC"/>
<circle cx="1" cy="57" r="1" transform="rotate(-180 1 57)" fill="#F5F5DC"/>
<circle cx="1" cy="49" r="1" transform="rotate(-180 1 49)" fill="#F5F5DC"/>
<circle cx="1.00024" cy="41" r="1" transform="rotate(-180 1.00024 41)" fill="#F5F5DC"/>
<circle cx="1" cy="33" r="1" transform="rotate(-180 1 33)" fill="#F5F5DC"/>
<circle cx="1.00024" cy="25" r="1" transform="rotate(-180 1.00024 25)" fill="#F5F5DC"/>
<circle cx="1" cy="17" r="1" transform="rotate(-180 1 17)" fill="#F5F5DC"/>
<circle cx="1.00024" cy="9" r="1" transform="rotate(-180 1.00024 9)" fill="#F5F5DC"/>
<circle cx="1" cy="1" r="1" transform="rotate(-180 1 1)" fill="#F5F5DC"/>
</svg>
