<svg width="116" height="180" viewBox="0 0 116 180" fill="none" xmlns="http://www.w3.org/2000/svg">
<circle cx="114.001" cy="178" r="2" transform="rotate(-180 114.001 178)" fill="#F5F5DC"/>
<circle cx="114.001" cy="162" r="2" transform="rotate(-180 114.001 162)" fill="#F5F5DC"/>
<circle cx="114.001" cy="146" r="2" transform="rotate(-180 114.001 146)" fill="#F5F5DC"/>
<circle cx="114.001" cy="130" r="2" transform="rotate(-180 114.001 130)" fill="#F5F5DC"/>
<circle cx="114.001" cy="114" r="2" transform="rotate(-180 114.001 114)" fill="#F5F5DC"/>
<circle cx="114.001" cy="98.0001" r="2" transform="rotate(-180 114.001 98.0001)" fill="#F5F5DC"/>
<circle cx="114.001" cy="82.0001" r="2" transform="rotate(-180 114.001 82.0001)" fill="#F5F5DC"/>
<circle cx="114.001" cy="66.0001" r="2" transform="rotate(-180 114.001 66.0001)" fill="#F5F5DC"/>
<circle cx="114.001" cy="50.0001" r="2" transform="rotate(-180 114.001 50.0001)" fill="#F5F5DC"/>
<circle cx="114.001" cy="34.0001" r="2" transform="rotate(-180 114.001 34.0001)" fill="#F5F5DC"/>
<circle cx="114.001" cy="18.0001" r="2" transform="rotate(-180 114.001 18.0001)" fill="#F5F5DC"/>
<circle cx="114.001" cy="2.00006" r="2" transform="rotate(-180 114.001 2.00006)" fill="#F5F5DC"/>
<circle cx="98.0012" cy="178" r="2" transform="rotate(-180 98.0012 178)" fill="#F5F5DC"/>
<circle cx="98.0012" cy="162" r="2" transform="rotate(-180 98.0012 162)" fill="#F5F5DC"/>
<circle cx="98.0012" cy="146" r="2" transform="rotate(-180 98.0012 146)" fill="#F5F5DC"/>
<circle cx="98.0012" cy="130" r="2" transform="rotate(-180 98.0012 130)" fill="#F5F5DC"/>
<circle cx="98.0012" cy="114" r="2" transform="rotate(-180 98.0012 114)" fill="#F5F5DC"/>
<circle cx="98.0012" cy="98.0001" r="2" transform="rotate(-180 98.0012 98.0001)" fill="#F5F5DC"/>
<circle cx="98.0012" cy="82.0001" r="2" transform="rotate(-180 98.0012 82.0001)" fill="#F5F5DC"/>
<circle cx="98.0012" cy="66.0001" r="2" transform="rotate(-180 98.0012 66.0001)" fill="#F5F5DC"/>
<circle cx="98.0012" cy="50.0001" r="2" transform="rotate(-180 98.0012 50.0001)" fill="#F5F5DC"/>
<circle cx="98.0012" cy="34.0001" r="2" transform="rotate(-180 98.0012 34.0001)" fill="#F5F5DC"/>
<circle cx="98.0012" cy="18.0001" r="2" transform="rotate(-180 98.0012 18.0001)" fill="#F5F5DC"/>
<circle cx="98.0012" cy="2.00006" r="2" transform="rotate(-180 98.0012 2.00006)" fill="#F5F5DC"/>
<circle cx="82.0012" cy="178" r="2" transform="rotate(-180 82.0012 178)" fill="#F5F5DC"/>
<circle cx="82.0012" cy="162" r="2" transform="rotate(-180 82.0012 162)" fill="#F5F5DC"/>
<circle cx="82.0012" cy="146" r="2" transform="rotate(-180 82.0012 146)" fill="#F5F5DC"/>
<circle cx="82.0012" cy="130" r="2" transform="rotate(-180 82.0012 130)" fill="#F5F5DC"/>
<circle cx="82.0012" cy="114" r="2" transform="rotate(-180 82.0012 114)" fill="#F5F5DC"/>
<circle cx="82.0012" cy="98.0001" r="2" transform="rotate(-180 82.0012 98.0001)" fill="#F5F5DC"/>
<circle cx="82.0012" cy="82.0001" r="2" transform="rotate(-180 82.0012 82.0001)" fill="#F5F5DC"/>
<circle cx="82.0012" cy="66.0001" r="2" transform="rotate(-180 82.0012 66.0001)" fill="#F5F5DC"/>
<circle cx="82.0012" cy="50.0001" r="2" transform="rotate(-180 82.0012 50.0001)" fill="#F5F5DC"/>
<circle cx="82.0012" cy="34.0001" r="2" transform="rotate(-180 82.0012 34.0001)" fill="#F5F5DC"/>
<circle cx="82.0012" cy="18.0001" r="2" transform="rotate(-180 82.0012 18.0001)" fill="#F5F5DC"/>
<circle cx="82.0012" cy="2.00006" r="2" transform="rotate(-180 82.0012 2.00006)" fill="#F5F5DC"/>
<circle cx="66.001" cy="178" r="2" transform="rotate(-180 66.001 178)" fill="#F5F5DC"/>
<circle cx="66.0012" cy="162" r="2" transform="rotate(-180 66.0012 162)" fill="#F5F5DC"/>
<circle cx="66.001" cy="146" r="2" transform="rotate(-180 66.001 146)" fill="#F5F5DC"/>
<circle cx="66.0012" cy="130" r="2" transform="rotate(-180 66.0012 130)" fill="#F5F5DC"/>
<circle cx="66.0012" cy="114" r="2" transform="rotate(-180 66.0012 114)" fill="#F5F5DC"/>
<circle cx="66.0012" cy="98.0001" r="2" transform="rotate(-180 66.0012 98.0001)" fill="#F5F5DC"/>
<circle cx="66.001" cy="82.0001" r="2" transform="rotate(-180 66.001 82.0001)" fill="#F5F5DC"/>
<circle cx="66.001" cy="66.0001" r="2" transform="rotate(-180 66.001 66.0001)" fill="#F5F5DC"/>
<circle cx="66.001" cy="50.0001" r="2" transform="rotate(-180 66.001 50.0001)" fill="#F5F5DC"/>
<circle cx="66.001" cy="34.0001" r="2" transform="rotate(-180 66.001 34.0001)" fill="#F5F5DC"/>
<circle cx="66.001" cy="18.0001" r="2" transform="rotate(-180 66.001 18.0001)" fill="#F5F5DC"/>
<circle cx="66.001" cy="2.00006" r="2" transform="rotate(-180 66.001 2.00006)" fill="#F5F5DC"/>
<circle cx="50.0007" cy="178" r="2" transform="rotate(-180 50.0007 178)" fill="#F5F5DC"/>
<circle cx="50.001" cy="162" r="2" transform="rotate(-180 50.001 162)" fill="#F5F5DC"/>
<circle cx="50.0007" cy="146" r="2" transform="rotate(-180 50.0007 146)" fill="#F5F5DC"/>
<circle cx="50.001" cy="130" r="2" transform="rotate(-180 50.001 130)" fill="#F5F5DC"/>
<circle cx="50.001" cy="114" r="2" transform="rotate(-180 50.001 114)" fill="#F5F5DC"/>
<circle cx="50.001" cy="98.0001" r="2" transform="rotate(-180 50.001 98.0001)" fill="#F5F5DC"/>
<circle cx="50.001" cy="82.0001" r="2" transform="rotate(-180 50.001 82.0001)" fill="#F5F5DC"/>
<circle cx="50.001" cy="66.0001" r="2" transform="rotate(-180 50.001 66.0001)" fill="#F5F5DC"/>
<circle cx="50.001" cy="50.0001" r="2" transform="rotate(-180 50.001 50.0001)" fill="#F5F5DC"/>
<circle cx="50.001" cy="34.0001" r="2" transform="rotate(-180 50.001 34.0001)" fill="#F5F5DC"/>
<circle cx="50.001" cy="18.0001" r="2" transform="rotate(-180 50.001 18.0001)" fill="#F5F5DC"/>
<circle cx="50.001" cy="2.00006" r="2" transform="rotate(-180 50.001 2.00006)" fill="#F5F5DC"/>
<circle cx="34.0005" cy="178" r="2" transform="rotate(-180 34.0005 178)" fill="#F5F5DC"/>
<circle cx="34.0007" cy="162" r="2" transform="rotate(-180 34.0007 162)" fill="#F5F5DC"/>
<circle cx="34.0007" cy="146" r="2" transform="rotate(-180 34.0007 146)" fill="#F5F5DC"/>
<circle cx="34.0007" cy="130" r="2" transform="rotate(-180 34.0007 130)" fill="#F5F5DC"/>
<circle cx="34.0007" cy="114" r="2" transform="rotate(-180 34.0007 114)" fill="#F5F5DC"/>
<circle cx="34.0007" cy="98" r="2" transform="rotate(-180 34.0007 98)" fill="#F5F5DC"/>
<circle cx="34.0007" cy="82" r="2" transform="rotate(-180 34.0007 82)" fill="#F5F5DC"/>
<circle cx="34.0007" cy="66" r="2" transform="rotate(-180 34.0007 66)" fill="#F5F5DC"/>
<circle cx="34.0007" cy="50" r="2" transform="rotate(-180 34.0007 50)" fill="#F5F5DC"/>
<circle cx="34.0007" cy="34" r="2" transform="rotate(-180 34.0007 34)" fill="#F5F5DC"/>
<circle cx="34.0007" cy="18" r="2" transform="rotate(-180 34.0007 18)" fill="#F5F5DC"/>
<circle cx="34.0007" cy="2" r="2" transform="rotate(-180 34.0007 2)" fill="#F5F5DC"/>
<circle cx="18.0002" cy="178" r="2" transform="rotate(-180 18.0002 178)" fill="#F5F5DC"/>
<circle cx="18.0002" cy="162" r="2" transform="rotate(-180 18.0002 162)" fill="#F5F5DC"/>
<circle cx="18.0002" cy="146" r="2" transform="rotate(-180 18.0002 146)" fill="#F5F5DC"/>
<circle cx="18.0005" cy="130" r="2" transform="rotate(-180 18.0005 130)" fill="#F5F5DC"/>
<circle cx="18.0005" cy="114" r="2" transform="rotate(-180 18.0005 114)" fill="#F5F5DC"/>
<circle cx="18.0005" cy="98.0001" r="2" transform="rotate(-180 18.0005 98.0001)" fill="#F5F5DC"/>
<circle cx="18.0005" cy="82.0001" r="2" transform="rotate(-180 18.0005 82.0001)" fill="#F5F5DC"/>
<circle cx="18.0005" cy="66.0001" r="2" transform="rotate(-180 18.0005 66.0001)" fill="#F5F5DC"/>
<circle cx="18.0005" cy="50.0001" r="2" transform="rotate(-180 18.0005 50.0001)" fill="#F5F5DC"/>
<circle cx="18.0005" cy="34.0001" r="2" transform="rotate(-180 18.0005 34.0001)" fill="#F5F5DC"/>
<circle cx="18.0005" cy="18.0001" r="2" transform="rotate(-180 18.0005 18.0001)" fill="#F5F5DC"/>
<circle cx="18.0005" cy="2.00006" r="2" transform="rotate(-180 18.0005 2.00006)" fill="#F5F5DC"/>
<circle cx="2" cy="178" r="2" transform="rotate(-180 2 178)" fill="#F5F5DC"/>
<circle cx="2" cy="162" r="2" transform="rotate(-180 2 162)" fill="#F5F5DC"/>
<circle cx="2" cy="146" r="2" transform="rotate(-180 2 146)" fill="#F5F5DC"/>
<circle cx="2" cy="130" r="2" transform="rotate(-180 2 130)" fill="#F5F5DC"/>
<circle cx="2" cy="114" r="2" transform="rotate(-180 2 114)" fill="#F5F5DC"/>
<circle cx="2" cy="98" r="2" transform="rotate(-180 2 98)" fill="#F5F5DC"/>
<circle cx="2.00024" cy="82" r="2" transform="rotate(-180 2.00024 82)" fill="#F5F5DC"/>
<circle cx="2" cy="66" r="2" transform="rotate(-180 2 66)" fill="#F5F5DC"/>
<circle cx="2.00024" cy="50" r="2" transform="rotate(-180 2.00024 50)" fill="#F5F5DC"/>
<circle cx="2" cy="34" r="2" transform="rotate(-180 2 34)" fill="#F5F5DC"/>
<circle cx="2.00024" cy="18" r="2" transform="rotate(-180 2.00024 18)" fill="#F5F5DC"/>
<circle cx="2" cy="2" r="2" transform="rotate(-180 2 2)" fill="#F5F5DC"/>
</svg>
