<svg width="48" height="48" viewBox="0 0 48 48" fill="none" xmlns="http://www.w3.org/2000/svg">
<path fill-rule="evenodd" clip-rule="evenodd" d="M23.9721 0.00020718C23.5132 0.00752443 23.0752 0.193135 22.7507 0.517747L16.7473 6.52121H8.18025C7.71175 6.52126 7.26245 6.70739 6.93117 7.03867C6.59989 7.36995 6.41376 7.81925 6.41371 8.28775V16.8548L0.5172 22.7513C0.186035 23.0826 0 23.5318 0 24.0003C0 24.4687 0.186035 24.918 0.5172 25.2493L6.41371 31.1458V39.7128C6.41376 40.1813 6.59989 40.6306 6.93117 40.9619C7.26245 41.2932 7.71175 41.4793 8.18025 41.4793H16.7473L22.7507 47.4828C23.082 47.814 23.5313 48 23.9997 48C24.4682 48 24.9174 47.814 25.2487 47.4828L31.2522 41.4793H39.8192C40.2877 41.4793 40.737 41.2932 41.0683 40.9619C41.3996 40.6306 41.5857 40.1813 41.5857 39.7128V31.1458L47.4823 25.2493C47.8134 24.918 47.9995 24.4687 47.9995 24.0003C47.9995 23.5318 47.8134 23.0826 47.4823 22.7513L41.5857 16.8548V8.28775C41.5857 7.81925 41.3996 7.36995 41.0683 7.03867C40.737 6.70739 40.2877 6.52126 39.8192 6.52121H31.2522L25.2487 0.517747C25.0814 0.350385 24.8822 0.218334 24.6629 0.129431C24.4436 0.0405275 24.2087 -0.00341648 23.9721 0.00020718ZM23.9997 4.26474L29.2717 9.53675C29.603 9.86804 30.0523 10.0542 30.5207 10.0543H38.0527V17.5862C38.0528 18.0547 38.2389 18.504 38.5702 18.8352L43.7353 24.0003L38.5702 29.1653C38.2389 29.4966 38.0528 29.9458 38.0527 30.4143V37.9463H30.5207C30.0523 37.9464 29.603 38.1325 29.2717 38.4638L23.9997 43.7358L18.7277 38.4638C18.3965 38.1325 17.9472 37.9464 17.4787 37.9463H9.94678V30.4143C9.94669 29.9458 9.76053 29.4966 9.42924 29.1653L4.26419 24.0003L9.42924 18.8352C9.76053 18.504 9.94669 18.0547 9.94678 17.5862V10.0543H17.4787C17.9472 10.0542 18.3965 9.86804 18.7277 9.53675L23.9997 4.26474Z" fill="#fff"/>
</svg>
